<svg version="1.1" viewBox="0.0 0.0 1174.5721784776904 406.501312335958" fill="none" stroke="none" stroke-linecap="square" stroke-miterlimit="10" xmlns:xlink="http://www.w3.org/1999/xlink" xmlns="http://www.w3.org/2000/svg"><clipPath id="p.0"><path d="m0 0l1174.5721 0l0 406.5013l-1174.5721 0l0 -406.5013z" clip-rule="nonzero"/></clipPath><g clip-path="url(#p.0)"><path fill="#000000" fill-opacity="0.0" d="m0 0l1174.5721 0l0 406.5013l-1174.5721 0z" fill-rule="evenodd"/><path fill="#fdba74" d="m599.5197 226.05511l180.07611 30.38321l48.16797 19.2677l40.758545 -7.409424l34.829346 2.9632568l11.1154785 -4.4461975l20.010498 8.152222l62.989502 -14.08136l20.748047 -25.196854l12.598389 5.18898l40.018433 -29.643051l34.086548 27.419952l28.902954 3.7060242l12.595825 11.855652l18.527466 -6.6692963l22.23108 2.2230988l-5.1864014 197.12074l-1206.4384 -17.78479l5.1889763 -194.89763l25.194225 18.524933l28.902885 -5.9265137l13.338585 5.9265137l0 -20.748032l23.71391 -12.598419l11.115486 11.855637l27.41732 -28.16011l32.6063 2.2230988l34.089233 -27.417313l22.973755 6.669281l28.900269 28.16011l25.937012 -11.115494l48.910767 13.338593l26.677155 13.338577l8.892395 -24.454071l15.561676 -11.1154785l5.929138 -21.490814l7.4094543 -18.527557l14.08136 -14.078751l17.78476 -8.152222l4.4461975 -13.338585l25.196869 4.4461975l13.338562 24.454063l32.606323 5.929138l0 -8.892395l22.973724 11.115494l6.6693115 25.194214l17.78476 0.7427826z" fill-rule="evenodd"/><path fill="#047857" d="m679.472 334.98822c-3.4580078 -7.5341187 1.1119385 -28.77649 -2.2231445 -40.015747c-3.335083 -11.239288 -13.094055 -15.315857 -17.787354 -27.419952c-4.6933594 -12.104126 -10.743225 -35.324158 -10.372742 -45.204727c0.37054443 -9.880585 7.902466 -21.860031 12.595825 -14.078751c4.6933594 7.7812805 12.846863 57.30841 15.56427 60.76642c2.7174072 3.4580078 -1.2357788 -10.9938965 0.74017334 -40.018387c1.9759521 -29.02449 5.5577393 -112.391075 11.1154785 -134.1286c5.5577393 -21.737534 18.772522 -19.145676 22.230957 3.7034073c3.458496 22.849083 -4.444824 115.97637 -1.4802856 133.39108c2.9645386 17.414703 14.450989 -17.29309 19.2677 -28.902878c4.8167114 -11.609802 5.556885 -33.71611 9.632568 -40.755905c4.0756836 -7.03981 13.957153 -11.240158 14.821533 -1.4829407c0.8643799 9.757217 -5.9300537 45.82283 -9.635193 60.026245c-3.7051392 14.2034 -7.2852173 18.401566 -12.595825 25.194214c-5.310547 6.7926636 -16.3031 6.051193 -19.2677 15.561691c-2.9645386 9.510498 1.604126 29.520569 1.4803467 41.501312c-0.12384033 11.980743 0.3704834 24.207794 -2.2231445 30.38321c-2.593567 6.175415 -8.027954 6.4225464 -13.338562 6.669281c-5.310608 0.2467041 -15.066895 2.3451538 -18.524902 -5.188965z" fill-rule="evenodd"/><path fill="#c2410c" d="m-31.119183 306.82822c17.365704 -15.328949 54.570427 22.768158 121.979004 16.963257c67.40857 -5.804901 171.43001 -52.54724 282.47247 -51.792664c111.04242 0.75460815 263.58002 55.825897 383.78217 56.32022c120.20209 0.4942932 262.3368 -45.82022 337.43036 -53.35434c75.09363 -7.5341187 91.88806 -3.3363953 113.13135 8.149597c21.243164 11.486023 36.202515 34.705627 14.328003 60.76642c-21.87439 26.060791 11.912598 83.37094 -145.57483 95.59842c-157.48724 12.227478 -617.72174 -18.28128 -799.349 -22.233582c-181.62729 -3.9523315 -239.04813 16.922577 -290.4147 -1.4803162c-51.366577 -18.402893 -35.150482 -93.60806 -17.784777 -108.93701z" fill-rule="evenodd"/><path fill="#ffffff" d="m842.7507 85.62205l0 0c0 -19.847458 16.089539 -35.937008 35.93701 -35.937008l0 0c9.531067 0 18.671814 3.786209 25.411255 10.525707c6.739502 6.7394943 10.525757 15.880211 10.525757 25.4113l0 0c0 19.847458 -16.0896 35.937004 -35.93701 35.937004l0 0c-19.847473 0 -35.93701 -16.089546 -35.93701 -35.937004z" fill-rule="evenodd"/><path fill="#c2410c" d="m368.47507 180.85039l3.7060242 -8.152222l5.186371 7.4120636l1.4829407 -17.044617l11.1154785 14.078751l6.669281 28.160095l-11.855621 -0.7401581l8.8923645 41.498688l-24.456696 14.08136l-28.900238 -2.9658813l4.4461975 -28.900253l4.446167 -15.561676l8.152252 -6.6692963l2.2230835 10.375336z" fill-rule="evenodd"/><path fill="#c2410c" d="m414.41995 189.74278l8.152222 -3.703415l5.1889954 16.301834l8.149597 36.312347l-28.900269 -8.892395l8.892395 -25.937012z" fill-rule="evenodd"/><path fill="#c2410c" d="m395.68503 158.97113l2.5932007 12.228348l5.9291077 0.3700714l-1.8529968 -11.1154785z" fill-rule="evenodd"/><path fill="#c2410c" d="m381.97638 143.03937l16.30185 -7.0393677l-9.632568 12.968506z" fill-rule="evenodd"/><path fill="#c2410c" d="m409.02362 135.25984l-3.3333435 8.519684l5.186371 1.4829407z" fill-rule="evenodd"/><path fill="#c2410c" d="m420.1391 135.62993l-3.333313 13.338577l8.522308 1.8530121l-1.8530273 -8.152222z" fill-rule="evenodd"/><path fill="#c2410c" d="m1019.90027 245.63518l-12.225708 15.191605l4.0734863 10.0026245l12.968506 -3.7034302l8.522339 -12.968491l-9.632568 -1.1128693z" fill-rule="evenodd"/><path fill="#c2410c" d="m1063.252 225.2546l-1.8530273 10.375336l7.041992 -2.2230988l-1.112793 -7.7795258z" fill-rule="evenodd"/><path fill="#c2410c" d="m1052.1365 235.25984l-9.632568 7.4094543l6.2991943 0l1.1102295 10.005249l7.7822266 0z" fill-rule="evenodd"/><path fill="#c2410c" d="m250.85039 210.4357l-13.708649 6.669281l-4.443573 29.70079l12.598419 -10.37532l11.112869 -20.80841z" fill-rule="evenodd"/><path fill="#c2410c" d="m180.82283 186.03937l10.745407 7.7821503l-8.522308 -1.112854z" fill-rule="evenodd"/><path fill="#c2410c" d="m174.52362 191.22572l-1.4803162 10.0026245l7.7795258 1.8530121l-2.2230988 -10.005249z" fill-rule="evenodd"/><path fill="#c2410c" d="m17.047245 260.14304l-5.556432 5.5590515l10.742782 4.4461975l0 7.779541l11.858267 0l-4.816271 -8.152222l-0.7427826 -8.519684z" fill-rule="evenodd"/><path fill="#c2410c" d="m57.435696 237.40158l-2.2230988 12.595795l7.4094505 0z" fill-rule="evenodd"/><path fill="#c2410c" d="m269.37796 214.7559l-2.223114 14.451447l-6.669281 0z" fill-rule="evenodd"/><path fill="#c2410c" d="m-3.7007873 280.8924l12.598425 -5.186371l2.593176 5.186371l-18.154856 7.412079z" fill-rule="evenodd"/><path fill="#c2410c" d="m191.56955 202.5105l1.8504028 5.1863556l4.076111 -8.892395" fill-rule="evenodd"/><path fill="#c2410c" d="m148.21785 225.31496l6.6692963 -11.858261l8.333328 -0.9842529l5.005249 -9.391083l7.59317 6.4252014l5.005249 21.73491l-9.635162 14.08136l8.335953 33.10237l-24.456696 14.08136l-28.90026 -2.9658813l4.44619 -28.900269l4.4461975 -15.561676l8.152237 -6.669281l2.2230988 10.37532z" fill-rule="evenodd"/></g></svg>