<svg version="1.1" viewBox="0.0 0.0 1174.6797900262468 105.43569553805774" fill="none" stroke="none" stroke-linecap="square" stroke-miterlimit="10" xmlns:xlink="http://www.w3.org/1999/xlink" xmlns="http://www.w3.org/2000/svg"><clipPath id="p.0"><path d="m0 0l1174.6798 0l0 105.43569l-1174.6798 0l0 -105.43569z" clip-rule="nonzero"/></clipPath><g clip-path="url(#p.0)"><path fill="#000000" fill-opacity="0.0" d="m0 0l1174.6798 0l0 105.43569l-1174.6798 0z" fill-rule="evenodd"/><path fill="#65a30d" fill-opacity="0.5417" d="m-17.088963 11.183037c1.36308 13.877077 -4.955818 30.107613 0 34.939632c4.955818 4.83202 20.070866 -6.690727 29.73491 -5.947506c9.664042 0.74321747 21.062992 8.672352 28.249344 10.406822c7.186352 1.7344704 9.169289 -0.9912491 14.868767 0c5.6994743 0.9912529 11.39851 5.699478 19.328083 5.94751c7.929573 0.2480278 19.947945 -3.8398972 28.249344 -4.45932c8.301399 -0.6194229 16.726593 -1.2397194 21.559052 0.7427826c4.832466 1.982502 1.4881897 9.665356 7.435692 11.152229c5.94751 1.4868774 19.948395 -0.6202965 28.249344 -2.2309685c8.300964 -1.6106758 12.759842 -7.804901 21.556442 -7.433071c8.796585 0.37182617 23.169281 8.177601 31.223099 9.66404c8.0538025 1.4864426 10.780838 -0.62117004 17.099731 -0.7454033c6.3188934 -0.12423706 15.114166 1.1150475 20.813644 0c5.699478 -1.1150513 9.294418 -7.929573 13.383194 -6.6902885c4.088806 1.2392807 4.45932 11.400261 11.149628 14.125984c6.690277 2.7257233 20.814514 0.24584198 28.992126 2.2283478c8.177582 1.9824982 14.002167 9.171036 20.073486 9.666664c6.071289 0.49562836 7.185913 -4.710411 16.35434 -6.692917c9.168396 -1.9824982 30.478546 -1.8569489 38.65616 -5.202095c8.177612 -3.3451462 5.329376 -12.39064 10.409454 -14.868767c5.0800476 -2.4781303 10.28302 -0.37183 20.070862 0c9.787842 0.37182617 31.346008 -1.7340355 38.65616 2.2309685c7.31015 3.965004 -0.49475098 19.32896 5.2047424 21.559055c5.699463 2.230095 19.94748 -5.9479446 28.992096 -8.178474c9.044647 -2.2305374 17.346039 -2.479004 25.275604 -5.204727c7.9295654 -2.7257195 15.239258 -9.29134 22.301819 -11.149605c7.062561 -1.8582687 15.365295 -2.1063004 20.073486 0c4.708252 2.1062965 2.3526 10.531494 8.175903 12.6377945c5.823242 2.1063004 20.196838 0 26.763733 0c6.5669556 0 4.4606323 0 12.637817 0c8.177185 0 26.76117 -2.9733124 36.42517 0c9.6640625 2.9733124 14.248901 15.981628 21.559082 17.839897c7.3101196 1.8582687 16.973755 -5.575241 22.301819 -6.6902924c5.328125 -1.1150436 5.94928 -0.12422943 9.666687 0c3.7174072 0.12423706 5.2038574 1.36483 12.637817 0.7454071c7.433899 -0.6194229 22.673645 -3.59449 31.965881 -4.4619446c9.292175 -0.8674469 15.114563 0.24847412 23.787354 -0.74277496c8.672791 -0.9912567 21.186829 -5.452324 28.24939 -5.204727c7.0625 0.24759674 6.815796 5.82283 14.125977 6.6902847c7.3101196 0.8674545 22.79657 0.12511444 29.734863 -1.4855576c6.9383545 -1.6106796 6.4431763 -7.806656 11.89502 -8.178482c5.4519043 -0.37182617 13.877991 4.33683 20.816284 5.94751c6.9383545 1.610672 14.494751 5.451004 20.81366 3.7165298c6.3189087 -1.7344666 7.6832886 -12.512684 17.099731 -14.123356c9.416443 -1.6106758 30.849976 3.096241 39.398926 4.4593163c8.549011 1.3630829 5.699951 3.0993042 11.89502 3.719162c6.1951294 0.6198578 15.982971 1.3630753 25.275635 0c9.292603 -1.3630829 22.79834 -6.815399 30.480286 -8.178478c7.682007 -1.3630791 5.1762695 -0.12379837 15.611572 0c10.435242 0.123794556 39.290833 3.220913 46.99994 0.7427826c7.7091064 -2.4781303 -6.444458 -15.487751 -0.7453613 -15.611549c5.6990967 -0.12379837 23.912476 12.390636 34.939575 14.868767c11.027222 2.4781303 22.797485 0.123794556 31.223145 0c8.425659 -0.12379837 11.153076 -2.7252846 19.330688 -0.7427826c8.177612 1.982502 18.583984 10.160107 29.734985 12.637798c11.150879 2.477684 29.984253 27.008743 37.170532 2.2283401c7.1864014 -24.7804 147.318 -131.08705 5.94751 -150.91077c-141.37048 -19.823708 -645.4943 25.649609 -854.1706 31.968506c-208.67628 6.3188972 -332.9357 -3.099739 -397.88715 5.9448814c-64.95145 9.044619 6.815399 34.445755 8.178478 48.322834z" fill-rule="evenodd"/><path fill="#047857" d="m-0.7352383 -4.429011c-198.61241 4.5839896 -5.822835 16.849081 -3.7165353 20.813648c2.1062992 3.9645672 10.6552925 3.4689407 16.354332 2.973753c5.6990376 -0.49518776 11.149168 -5.9448814 17.839895 -5.9448814c6.6907253 0 14.498686 4.954067 22.30446 5.9448814c7.8057747 0.9908142 18.087486 -1.734909 24.530182 0c6.4426956 1.734909 7.559059 9.418198 14.125984 10.409449c6.5669327 0.991251 17.098427 -3.7182846 25.275597 -4.4619427c8.177162 -0.74365616 17.592293 -1.3630791 23.787392 0c6.195114 1.363081 8.05513 6.815399 13.383209 8.178478c5.328079 1.3630791 11.646988 0.6194229 18.585297 0c6.938324 -0.6194229 15.610672 -2.849081 23.044617 -3.7165356c7.43396 -0.8674545 15.116364 -1.6119862 21.559067 -1.4881897c6.442688 0.12379837 12.51268 3.469818 17.097107 2.2309723c4.584427 -1.2388458 2.8512726 -9.540245 10.409454 -9.6640415c7.558182 -0.12379837 25.6474 4.089237 34.939636 8.921259c9.292206 4.8320217 12.264648 16.725721 20.81363 20.070868c8.549011 3.3451424 23.417786 1.610672 30.480316 0c7.062561 -1.6106758 2.9742126 -7.557743 11.89502 -9.664043c8.920837 -2.1063004 32.21347 -1.2392807 41.629913 -2.973755c9.416473 -1.7344704 7.186798 -7.061241 14.868774 -7.433069c7.6819763 -0.37182808 22.054688 4.8307095 31.223114 5.2021008c9.168396 0.3713913 15.6102295 -3.345583 23.787384 -2.973755c8.177185 0.37183 15.982941 4.2134743 25.275604 5.2047234c9.292633 0.9912529 20.568237 2.7252846 30.480316 0.7427826c9.912048 -1.982502 17.841187 -10.903324 28.992126 -12.6377945c11.150879 -1.7344704 28.496948 0.124671936 37.91339 2.2309723c9.416443 2.1062984 9.66449 8.919949 18.585266 10.406822c8.920837 1.4868774 27.753296 -0.37051392 34.939636 -1.4855614c7.1863403 -1.1150513 2.7266235 -4.3372726 8.178467 -5.2047253c5.4519043 -0.8674545 18.585754 -0.49562645 24.532837 0c5.9470825 0.49562454 4.0874634 0.991251 11.149597 2.973753c7.062134 1.982502 23.293518 5.947506 31.223083 8.921261c7.9295654 2.973751 10.159241 7.8062096 16.35437 8.921257c6.1950684 1.1150513 13.629883 -0.6202965 20.816284 -2.2309685c7.1863403 -1.6106758 14.991638 -5.822399 22.301819 -7.433071c7.3101196 -1.6106758 16.231384 -2.8503952 21.559021 -2.2309723c5.3276978 0.6194229 4.7073975 5.328083 10.40686 5.947506c5.699463 0.6194229 17.223083 -0.24846649 23.79004 -2.2309685c6.5668945 -1.9825058 8.796997 -10.283466 15.611511 -9.664043c6.814514 0.6194229 17.469849 13.132545 25.275574 13.380577c7.805786 0.24803162 12.514465 -9.6622925 21.559082 -11.892387c9.044617 -2.2300987 24.035889 -0.99256516 32.70868 -1.4881897c8.672791 -0.49562454 11.769897 -2.2292213 19.328064 -1.4855652c7.5581665 0.74365616 19.082214 5.699913 26.020996 5.947506c6.9387817 0.24759674 9.045044 -3.7182846 15.611572 -4.461941c6.5664673 -0.74365616 16.229614 0 23.787354 0c7.5578003 0 13.629517 1.1150475 21.559082 0c7.9295654 -1.1150475 17.46936 -5.0796146 26.018433 -6.6902885c8.54895 -1.6106739 17.0979 -3.0975513 25.275513 -2.973753c8.177612 0.12379646 16.72754 2.9728775 23.79004 3.7165337c7.062622 0.74365807 14.620728 1.9842529 18.585327 0.7454071c3.9645996 -1.2388439 -1.736206 -7.8066483 5.2020264 -8.178476c6.9383545 -0.37183 29.365356 2.4781265 36.427856 5.947506c7.062622 3.4693794 1.1154785 12.638672 5.94751 14.868767c4.8320312 2.230095 18.95581 7.308834 23.044678 -1.4881897c4.088745 -8.797026 199.23315 -43.860016 1.4881592 -51.293964c-197.745 -7.4339457 -989.3456 2.1062994 -1187.958 6.690289z" fill-rule="evenodd"/></g></svg>