<svg version="1.1" viewBox="0.0 0.0 1178.293963254593 186.6220472440945" fill="none" stroke="none" stroke-linecap="square" stroke-miterlimit="10" xmlns:xlink="http://www.w3.org/1999/xlink" xmlns="http://www.w3.org/2000/svg"><clipPath id="p.0"><path d="m0 0l1178.294 0l0 186.62204l-1178.294 0l0 -186.62204z" clip-rule="nonzero"/></clipPath><g clip-path="url(#p.0)"><path fill="#000000" fill-opacity="0.0" d="m0 0l1178.294 0l0 186.62204l-1178.294 0z" fill-rule="evenodd"/><path fill="#fdba74" d="m-17.832132 -16.322582c-205.3307 26.266842 -15.984251 90.32327 1.4855652 104.07611c17.469816 13.752846 63.685036 -27.134293 103.33333 -21.559052c39.648293 5.575241 77.93395 54.638664 134.55643 55.010498c56.622482 0.37182617 135.79439 -55.50569 205.17848 -52.779526c69.38406 2.7261581 148.30841 66.41076 211.12598 69.13648c62.817566 2.7257233 102.314514 -54.76422 165.77954 -52.782158c63.464966 1.9820709 160.96234 61.701225 215.0105 64.67454c54.048096 2.9733276 76.321045 -38.16185 109.2782 -46.83464c32.957153 -8.672791 73.84424 23.542435 88.4646 -5.202095c14.620239 -28.744537 204.95935 -148.30841 -0.74279785 -167.2651c-205.70209 -18.956688 -1028.1392 27.258095 -1233.4698 53.524937z" fill-rule="evenodd"/><path fill="#c2410c" d="m-4.452633 -6.6581264c-198.98425 10.160105 -21.436571 40.391953 -3.71916 46.83465c17.717411 6.442692 65.7909 -11.399826 110.02362 -8.17848c44.23272 3.2213497 96.27209 26.51531 155.37268 27.506563c59.100616 0.9912491 137.40466 -25.647858 199.23099 -21.559055c61.826355 4.0888023 117.582214 44.481186 171.72705 46.091866c54.144775 1.610672 110.024475 -32.090992 153.14172 -36.427826c43.11725 -4.33683 66.16138 1.85783 105.561646 10.406826c39.40027 8.548992 96.51929 38.409008 130.8399 40.887142c34.32068 2.4781265 47.08264 -17.965004 75.083984 -26.01838c28.001343 -8.053368 77.436646 -6.6902847 92.92395 -22.301834c15.487305 -15.611549 198.36438 -61.82721 0 -71.367455c-198.36444 -9.540245 -991.20215 3.9658794 -1190.1864 14.125984z" fill-rule="evenodd"/></g></svg>